<mxfile host="app.diagrams.net" modified="2023-08-16T11:14:37.860Z" agent="Mozilla/5.0 (Windows NT 10.0; Win64; x64) AppleWebKit/537.36 (KHTML, like Gecko) Chrome/115.0.0.0 Safari/537.36" etag="bR5oKxF_x4-Vw5Z1_MfS" version="21.6.8" type="device">
  <diagram id="R2lEEEUBdFMjLlhIrx00" name="Page-1">
    <mxGraphModel dx="1687" dy="929" grid="1" gridSize="10" guides="1" tooltips="1" connect="1" arrows="1" fold="1" page="1" pageScale="1" pageWidth="850" pageHeight="1100" math="0" shadow="0" extFonts="Permanent Marker^https://fonts.googleapis.com/css?family=Permanent+Marker">
      <root>
        <mxCell id="0" />
        <mxCell id="1" parent="0" />
        <mxCell id="zoEG0AGplNm5yNp7jDaA-6" value="" style="ellipse;whiteSpace=wrap;html=1;aspect=fixed;" vertex="1" parent="1">
          <mxGeometry x="147.5" y="297.5" width="125" height="125" as="geometry" />
        </mxCell>
        <mxCell id="zoEG0AGplNm5yNp7jDaA-1" value="&lt;font style=&quot;font-size: 16px;&quot;&gt;Verde A&lt;/font&gt;" style="ellipse;whiteSpace=wrap;html=1;aspect=fixed;" vertex="1" parent="1">
          <mxGeometry x="160" y="310" width="100" height="100" as="geometry" />
        </mxCell>
        <mxCell id="zoEG0AGplNm5yNp7jDaA-4" value="" style="endArrow=none;html=1;rounded=0;strokeWidth=5;" edge="1" parent="1">
          <mxGeometry width="50" height="50" relative="1" as="geometry">
            <mxPoint x="50" y="390" as="sourcePoint" />
            <mxPoint x="140" y="360" as="targetPoint" />
          </mxGeometry>
        </mxCell>
        <mxCell id="zoEG0AGplNm5yNp7jDaA-5" value="" style="endArrow=none;html=1;rounded=0;strokeWidth=5;" edge="1" parent="1">
          <mxGeometry width="50" height="50" relative="1" as="geometry">
            <mxPoint x="50" y="320" as="sourcePoint" />
            <mxPoint x="140" y="360" as="targetPoint" />
          </mxGeometry>
        </mxCell>
        <mxCell id="zoEG0AGplNm5yNp7jDaA-7" value="" style="curved=1;endArrow=classic;html=1;rounded=0;" edge="1" parent="1" target="zoEG0AGplNm5yNp7jDaA-1">
          <mxGeometry width="50" height="50" relative="1" as="geometry">
            <mxPoint x="240" y="320" as="sourcePoint" />
            <mxPoint x="290" y="270" as="targetPoint" />
            <Array as="points">
              <mxPoint x="290" y="320" />
              <mxPoint x="240" y="270" />
            </Array>
          </mxGeometry>
        </mxCell>
        <mxCell id="zoEG0AGplNm5yNp7jDaA-8" value="&lt;font style=&quot;font-size: 17px;&quot;&gt;GA&lt;/font&gt;" style="text;html=1;align=center;verticalAlign=middle;resizable=0;points=[];autosize=1;strokeColor=none;fillColor=none;" vertex="1" parent="1">
          <mxGeometry x="222.5" y="260" width="50" height="30" as="geometry" />
        </mxCell>
        <mxCell id="zoEG0AGplNm5yNp7jDaA-10" value="" style="endArrow=classic;html=1;rounded=0;strokeWidth=3;fillColor=#e51400;strokeColor=#000000;" edge="1" parent="1">
          <mxGeometry width="50" height="50" relative="1" as="geometry">
            <mxPoint x="260" y="370" as="sourcePoint" />
            <mxPoint x="370" y="370" as="targetPoint" />
          </mxGeometry>
        </mxCell>
        <mxCell id="zoEG0AGplNm5yNp7jDaA-11" value="&lt;font style=&quot;font-size: 16px;&quot;&gt;Amarelo A&lt;/font&gt;" style="ellipse;whiteSpace=wrap;html=1;aspect=fixed;" vertex="1" parent="1">
          <mxGeometry x="370" y="322.5" width="100" height="100" as="geometry" />
        </mxCell>
        <mxCell id="zoEG0AGplNm5yNp7jDaA-12" value="" style="curved=1;endArrow=classic;html=1;rounded=0;entryX=0.301;entryY=0.003;entryDx=0;entryDy=0;entryPerimeter=0;exitX=0.606;exitY=0.026;exitDx=0;exitDy=0;exitPerimeter=0;" edge="1" parent="1" source="zoEG0AGplNm5yNp7jDaA-11" target="zoEG0AGplNm5yNp7jDaA-11">
          <mxGeometry width="50" height="50" relative="1" as="geometry">
            <mxPoint x="439" y="322.5" as="sourcePoint" />
            <mxPoint x="425" y="315.5" as="targetPoint" />
            <Array as="points">
              <mxPoint x="460" y="260" />
              <mxPoint x="370" y="270" />
            </Array>
          </mxGeometry>
        </mxCell>
        <mxCell id="zoEG0AGplNm5yNp7jDaA-13" value="&lt;font style=&quot;font-size: 16px;&quot;&gt;YA&lt;/font&gt;" style="text;html=1;align=center;verticalAlign=middle;resizable=0;points=[];autosize=1;strokeColor=none;fillColor=none;" vertex="1" parent="1">
          <mxGeometry x="400" y="240" width="40" height="30" as="geometry" />
        </mxCell>
        <mxCell id="zoEG0AGplNm5yNp7jDaA-14" value="" style="endArrow=classic;html=1;rounded=0;strokeWidth=3;" edge="1" parent="1">
          <mxGeometry width="50" height="50" relative="1" as="geometry">
            <mxPoint x="470" y="371.91" as="sourcePoint" />
            <mxPoint x="580" y="371.91" as="targetPoint" />
          </mxGeometry>
        </mxCell>
        <mxCell id="zoEG0AGplNm5yNp7jDaA-15" value="&lt;font style=&quot;font-size: 16px;&quot;&gt;Vermelho A&lt;/font&gt;" style="ellipse;whiteSpace=wrap;html=1;aspect=fixed;" vertex="1" parent="1">
          <mxGeometry x="580" y="322.5" width="100" height="100" as="geometry" />
        </mxCell>
        <mxCell id="zoEG0AGplNm5yNp7jDaA-16" value="" style="curved=1;endArrow=classic;html=1;rounded=0;" edge="1" parent="1">
          <mxGeometry width="50" height="50" relative="1" as="geometry">
            <mxPoint x="654" y="330" as="sourcePoint" />
            <mxPoint x="640" y="323" as="targetPoint" />
            <Array as="points">
              <mxPoint x="704" y="330" />
              <mxPoint x="654" y="280" />
            </Array>
          </mxGeometry>
        </mxCell>
        <mxCell id="zoEG0AGplNm5yNp7jDaA-17" value="&lt;font style=&quot;font-size: 16px;&quot;&gt;RA&lt;/font&gt;" style="text;html=1;align=center;verticalAlign=middle;resizable=0;points=[];autosize=1;strokeColor=none;fillColor=none;" vertex="1" parent="1">
          <mxGeometry x="655" y="270" width="50" height="30" as="geometry" />
        </mxCell>
        <mxCell id="zoEG0AGplNm5yNp7jDaA-19" value="" style="endArrow=classic;html=1;rounded=0;strokeWidth=3;" edge="1" parent="1">
          <mxGeometry width="50" height="50" relative="1" as="geometry">
            <mxPoint x="430" y="421.32" as="sourcePoint" />
            <mxPoint x="570" y="500" as="targetPoint" />
          </mxGeometry>
        </mxCell>
        <mxCell id="zoEG0AGplNm5yNp7jDaA-20" value="&lt;font style=&quot;font-size: 16px;&quot;&gt;Verde B&lt;/font&gt;" style="ellipse;whiteSpace=wrap;html=1;aspect=fixed;" vertex="1" parent="1">
          <mxGeometry x="570" y="450" width="100" height="100" as="geometry" />
        </mxCell>
        <mxCell id="zoEG0AGplNm5yNp7jDaA-22" value="&lt;font style=&quot;font-size: 16px;&quot;&gt;GB&lt;/font&gt;" style="text;html=1;align=center;verticalAlign=middle;resizable=0;points=[];autosize=1;strokeColor=none;fillColor=none;" vertex="1" parent="1">
          <mxGeometry x="595" y="610" width="50" height="30" as="geometry" />
        </mxCell>
        <mxCell id="zoEG0AGplNm5yNp7jDaA-23" value="" style="endArrow=classic;html=1;rounded=0;strokeWidth=3;exitX=-0.041;exitY=0.669;exitDx=0;exitDy=0;exitPerimeter=0;fillColor=#e51400;strokeColor=#B20000;" edge="1" parent="1">
          <mxGeometry width="50" height="50" relative="1" as="geometry">
            <mxPoint x="570.0000000000001" y="509.9999999999999" as="sourcePoint" />
            <mxPoint x="464.1" y="510.1" as="targetPoint" />
          </mxGeometry>
        </mxCell>
        <mxCell id="zoEG0AGplNm5yNp7jDaA-24" value="&lt;font style=&quot;font-size: 16px;&quot;&gt;Amarelo B&lt;/font&gt;" style="ellipse;whiteSpace=wrap;html=1;aspect=fixed;" vertex="1" parent="1">
          <mxGeometry x="360" y="460" width="100" height="100" as="geometry" />
        </mxCell>
        <mxCell id="zoEG0AGplNm5yNp7jDaA-25" value="" style="curved=1;endArrow=classic;html=1;rounded=0;fillColor=#e51400;strokeColor=#B20000;" edge="1" parent="1" source="zoEG0AGplNm5yNp7jDaA-24" target="zoEG0AGplNm5yNp7jDaA-24">
          <mxGeometry width="50" height="50" relative="1" as="geometry">
            <mxPoint x="360" y="580" as="sourcePoint" />
            <mxPoint x="416" y="623" as="targetPoint" />
            <Array as="points">
              <mxPoint x="340" y="650" />
              <mxPoint x="430" y="580" />
            </Array>
          </mxGeometry>
        </mxCell>
        <mxCell id="zoEG0AGplNm5yNp7jDaA-27" value="&lt;font style=&quot;font-size: 16px;&quot;&gt;&lt;font color=&quot;#ff0000&quot;&gt;YB&lt;/font&gt;&lt;br&gt;&lt;/font&gt;" style="text;html=1;align=center;verticalAlign=middle;resizable=0;points=[];autosize=1;strokeColor=none;fillColor=none;" vertex="1" parent="1">
          <mxGeometry x="375" y="610" width="40" height="30" as="geometry" />
        </mxCell>
        <mxCell id="zoEG0AGplNm5yNp7jDaA-28" value="" style="endArrow=classic;html=1;rounded=0;strokeWidth=3;exitX=0.001;exitY=0.604;exitDx=0;exitDy=0;exitPerimeter=0;entryX=1;entryY=1;entryDx=0;entryDy=0;" edge="1" parent="1" source="zoEG0AGplNm5yNp7jDaA-24" target="zoEG0AGplNm5yNp7jDaA-1">
          <mxGeometry width="50" height="50" relative="1" as="geometry">
            <mxPoint x="200" y="430" as="sourcePoint" />
            <mxPoint x="340" y="508.67999999999995" as="targetPoint" />
          </mxGeometry>
        </mxCell>
        <mxCell id="zoEG0AGplNm5yNp7jDaA-29" value="&lt;font style=&quot;font-size: 16px;&quot;&gt;RB&lt;br&gt;&lt;/font&gt;" style="text;html=1;align=center;verticalAlign=middle;resizable=0;points=[];autosize=1;strokeColor=none;fillColor=none;" vertex="1" parent="1">
          <mxGeometry x="295" y="430" width="50" height="30" as="geometry" />
        </mxCell>
        <mxCell id="zoEG0AGplNm5yNp7jDaA-32" value="" style="endArrow=classic;html=1;rounded=0;strokeWidth=3;exitX=-0.041;exitY=0.669;exitDx=0;exitDy=0;exitPerimeter=0;" edge="1" parent="1">
          <mxGeometry width="50" height="50" relative="1" as="geometry">
            <mxPoint x="360.0000000000001" y="519.9999999999999" as="sourcePoint" />
            <mxPoint x="254.10000000000002" y="520.1" as="targetPoint" />
          </mxGeometry>
        </mxCell>
        <mxCell id="zoEG0AGplNm5yNp7jDaA-33" value="&lt;font style=&quot;font-size: 16px;&quot;&gt;Vermelho B&lt;/font&gt;" style="ellipse;whiteSpace=wrap;html=1;aspect=fixed;" vertex="1" parent="1">
          <mxGeometry x="150" y="470" width="100" height="100" as="geometry" />
        </mxCell>
        <mxCell id="zoEG0AGplNm5yNp7jDaA-34" value="" style="curved=1;endArrow=classic;html=1;rounded=0;exitX=0;exitY=1;exitDx=0;exitDy=0;" edge="1" parent="1" source="zoEG0AGplNm5yNp7jDaA-33">
          <mxGeometry width="50" height="50" relative="1" as="geometry">
            <mxPoint x="168" y="570" as="sourcePoint" />
            <mxPoint x="204" y="573" as="targetPoint" />
            <Array as="points">
              <mxPoint x="120" y="665" />
              <mxPoint x="210" y="595" />
            </Array>
          </mxGeometry>
        </mxCell>
        <mxCell id="zoEG0AGplNm5yNp7jDaA-35" value="&lt;font style=&quot;font-size: 16px;&quot;&gt;RB&lt;br&gt;&lt;/font&gt;" style="text;html=1;align=center;verticalAlign=middle;resizable=0;points=[];autosize=1;strokeColor=none;fillColor=none;" vertex="1" parent="1">
          <mxGeometry x="142.5" y="630" width="50" height="30" as="geometry" />
        </mxCell>
        <mxCell id="zoEG0AGplNm5yNp7jDaA-36" value="&lt;font style=&quot;font-size: 16px;&quot;&gt;RB&lt;br&gt;&lt;/font&gt;" style="text;html=1;align=center;verticalAlign=middle;resizable=0;points=[];autosize=1;strokeColor=none;fillColor=none;" vertex="1" parent="1">
          <mxGeometry x="285" y="520" width="50" height="30" as="geometry" />
        </mxCell>
        <mxCell id="zoEG0AGplNm5yNp7jDaA-37" value="&lt;font style=&quot;font-size: 16px;&quot;&gt;&lt;font color=&quot;#ff0000&quot;&gt;YB&lt;/font&gt;&lt;br&gt;&lt;/font&gt;" style="text;html=1;align=center;verticalAlign=middle;resizable=0;points=[];autosize=1;strokeColor=none;fillColor=none;" vertex="1" parent="1">
          <mxGeometry x="500" y="510" width="40" height="30" as="geometry" />
        </mxCell>
        <mxCell id="zoEG0AGplNm5yNp7jDaA-38" value="&lt;font style=&quot;font-size: 16px;&quot;&gt;RA&lt;br&gt;&lt;/font&gt;" style="text;html=1;align=center;verticalAlign=middle;resizable=0;points=[];autosize=1;strokeColor=none;fillColor=none;" vertex="1" parent="1">
          <mxGeometry x="485" y="430" width="50" height="30" as="geometry" />
        </mxCell>
        <mxCell id="zoEG0AGplNm5yNp7jDaA-39" value="&lt;font style=&quot;font-size: 16px;&quot;&gt;RA&lt;br&gt;&lt;/font&gt;" style="text;html=1;align=center;verticalAlign=middle;resizable=0;points=[];autosize=1;strokeColor=none;fillColor=none;" vertex="1" parent="1">
          <mxGeometry x="490" y="345" width="50" height="30" as="geometry" />
        </mxCell>
        <mxCell id="zoEG0AGplNm5yNp7jDaA-40" value="&lt;font style=&quot;font-size: 16px;&quot;&gt;YA&lt;br&gt;&lt;/font&gt;" style="text;html=1;align=center;verticalAlign=middle;resizable=0;points=[];autosize=1;strokeColor=none;fillColor=none;" vertex="1" parent="1">
          <mxGeometry x="295" y="345" width="40" height="30" as="geometry" />
        </mxCell>
        <mxCell id="zoEG0AGplNm5yNp7jDaA-41" value="&lt;div style=&quot;text-align: justify; font-size: 16px;&quot;&gt;&lt;span style=&quot;background-color: initial;&quot;&gt;&lt;font style=&quot;font-size: 16px;&quot;&gt;GA: Sinal Verde A&lt;/font&gt;&lt;/span&gt;&lt;/div&gt;&lt;div style=&quot;text-align: justify; font-size: 16px;&quot;&gt;&lt;span style=&quot;background-color: initial;&quot;&gt;&lt;font style=&quot;font-size: 16px;&quot;&gt;YA: Sinal Amarelo A&lt;/font&gt;&lt;/span&gt;&lt;/div&gt;&lt;div style=&quot;text-align: justify; font-size: 16px;&quot;&gt;&lt;span style=&quot;background-color: initial;&quot;&gt;&lt;font style=&quot;font-size: 16px;&quot;&gt;RA: Sinal Vermelho A&lt;/font&gt;&lt;/span&gt;&lt;/div&gt;&lt;div style=&quot;text-align: justify; font-size: 16px;&quot;&gt;&lt;span style=&quot;background-color: initial;&quot;&gt;&lt;font style=&quot;font-size: 16px;&quot;&gt;GB: Sinal Verde B&lt;/font&gt;&lt;/span&gt;&lt;/div&gt;&lt;div style=&quot;text-align: justify; font-size: 16px;&quot;&gt;&lt;span style=&quot;background-color: initial;&quot;&gt;&lt;font style=&quot;font-size: 16px;&quot;&gt;YB: Sinal Amarelo B&lt;/font&gt;&lt;/span&gt;&lt;/div&gt;&lt;div style=&quot;text-align: justify; font-size: 16px;&quot;&gt;&lt;span style=&quot;background-color: initial;&quot;&gt;&lt;font style=&quot;font-size: 16px;&quot;&gt;RB: Sinal Vermelho B&lt;/font&gt;&lt;/span&gt;&lt;/div&gt;" style="text;html=1;align=right;verticalAlign=middle;resizable=0;points=[];autosize=1;strokeColor=none;fillColor=none;" vertex="1" parent="1">
          <mxGeometry x="680" y="375" width="180" height="130" as="geometry" />
        </mxCell>
        <mxCell id="zoEG0AGplNm5yNp7jDaA-42" value="" style="curved=1;endArrow=classic;html=1;rounded=0;entryX=0.79;entryY=0.9;entryDx=0;entryDy=0;entryPerimeter=0;" edge="1" parent="1" target="zoEG0AGplNm5yNp7jDaA-20">
          <mxGeometry width="50" height="50" relative="1" as="geometry">
            <mxPoint x="613" y="550" as="sourcePoint" />
            <mxPoint x="649" y="553" as="targetPoint" />
            <Array as="points">
              <mxPoint x="565" y="645" />
              <mxPoint x="655" y="575" />
            </Array>
          </mxGeometry>
        </mxCell>
      </root>
    </mxGraphModel>
  </diagram>
</mxfile>
